<svg width="27" height="30" viewBox="0 0 27 30" fill="none" xmlns="http://www.w3.org/2000/svg">
<path d="M13.5 1.875C12.5023 1.875 11.5455 2.27009 10.84 2.97335C10.1346 3.67661 9.73826 4.63044 9.73826 5.625V9.375H7.85739V5.625C7.85739 4.13316 8.45188 2.70242 9.51007 1.64752C10.5683 0.592632 12.0035 0 13.5 0C14.9965 0 16.4317 0.592632 17.4899 1.64752C18.5481 2.70242 19.1426 4.13316 19.1426 5.625V9.375H17.2617V5.625C17.2617 4.63044 16.8654 3.67661 16.16 2.97335C15.4545 2.27009 14.4977 1.875 13.5 1.875ZM7.85739 9.375H4.77277C4.0973 9.37515 3.4443 9.61688 2.93245 10.0563C2.42059 10.4956 2.08386 11.1035 1.98344 11.7694L0.0517836 24.6187C-0.0483016 25.2855 -0.00295053 25.9659 0.184743 26.6135C0.372437 27.2612 0.698056 27.8608 1.13939 28.3716C1.58072 28.8824 2.12738 29.2923 2.74208 29.5733C3.35677 29.8543 4.02504 29.9999 4.70129 30H22.2968C22.9732 30.0001 23.6417 29.8548 24.2566 29.5739C24.8716 29.293 25.4185 28.8832 25.86 28.3723C26.3015 27.8615 26.6273 27.2618 26.8151 26.614C27.0029 25.9662 27.0483 25.2856 26.9482 24.6187L25.0147 11.7694C24.9143 11.1038 24.5778 10.4962 24.0664 10.0569C23.5549 9.61753 22.9024 9.3756 22.2272 9.375H19.1426V12.1875C19.1426 12.4361 19.0435 12.6746 18.8672 12.8504C18.6908 13.0262 18.4516 13.125 18.2022 13.125C17.9528 13.125 17.7136 13.0262 17.5372 12.8504C17.3608 12.6746 17.2617 12.4361 17.2617 12.1875V9.375H9.73826V12.1875C9.73826 12.4361 9.63918 12.6746 9.46281 12.8504C9.28645 13.0262 9.04725 13.125 8.79783 13.125C8.54841 13.125 8.3092 13.0262 8.13284 12.8504C7.95647 12.6746 7.85739 12.4361 7.85739 12.1875V9.375Z" fill="white"/>
</svg>
