<svg width="15" height="13" viewBox="0 0 15 13" fill="none" xmlns="http://www.w3.org/2000/svg">
<path fill-rule="evenodd" clip-rule="evenodd" d="M0 6.5C0 6.25377 0.0987612 6.01763 0.274557 5.84352C0.450353 5.66941 0.688783 5.5716 0.937395 5.5716H11.7981L7.77288 1.58689C7.59686 1.41256 7.49798 1.17612 7.49798 0.929577C7.49798 0.683038 7.59686 0.446596 7.77288 0.272267C7.9489 0.0979375 8.18763 0 8.43656 0C8.68548 0 8.92422 0.0979375 9.10023 0.272267L14.7246 5.84269C14.8119 5.92893 14.8812 6.03138 14.9284 6.14417C14.9757 6.25697 15 6.37788 15 6.5C15 6.62212 14.9757 6.74303 14.9284 6.85583C14.8812 6.96862 14.8119 7.07107 14.7246 7.15731L9.10023 12.7277C8.92422 12.9021 8.68548 13 8.43656 13C8.18763 13 7.9489 12.9021 7.77288 12.7277C7.59686 12.5534 7.49798 12.317 7.49798 12.0704C7.49798 11.8239 7.59686 11.5874 7.77288 11.4131L11.7981 7.4284H0.937395C0.688783 7.4284 0.450353 7.33059 0.274557 7.15648C0.0987612 6.98237 0 6.74623 0 6.5Z" fill="black"/>
</svg>
