<svg width="14" height="13" viewBox="0 0 14 13" fill="none" xmlns="http://www.w3.org/2000/svg">
<path fill-rule="evenodd" clip-rule="evenodd" d="M14 6.5C14 6.74623 13.9078 6.98237 13.7437 7.15648C13.5797 7.33059 13.3571 7.4284 13.1251 7.4284H2.98848L6.74531 11.4131C6.82666 11.4994 6.89118 11.6019 6.93521 11.7147C6.97923 11.8275 7.00189 11.9483 7.00189 12.0704C7.00189 12.1925 6.97923 12.3134 6.93521 12.4262C6.89118 12.5389 6.82666 12.6414 6.74531 12.7277C6.66397 12.8141 6.5674 12.8825 6.46111 12.9292C6.35483 12.976 6.24092 13 6.12588 13C6.01084 13 5.89693 12.976 5.79065 12.9292C5.68436 12.8825 5.58779 12.8141 5.50645 12.7277L0.257035 7.15731C0.175559 7.07107 0.110916 6.96862 0.0668094 6.85583C0.022703 6.74303 0 6.62212 0 6.5C0 6.37788 0.022703 6.25697 0.0668094 6.14417C0.110916 6.03138 0.175559 5.92893 0.257035 5.84269L5.50645 0.272267C5.67073 0.0979375 5.89355 0 6.12588 0C6.35821 0 6.58103 0.0979375 6.74531 0.272267C6.90959 0.446596 7.00189 0.683038 7.00189 0.929577C7.00189 1.17612 6.90959 1.41256 6.74531 1.58689L2.98848 5.5716H13.1251C13.3571 5.5716 13.5797 5.66941 13.7437 5.84352C13.9078 6.01763 14 6.25377 14 6.5Z" fill="black"/>
</svg>
